<svg width="60" height="60" viewBox="0 0 60 60" fill="none" xmlns="http://www.w3.org/2000/svg">
<circle cx="30" cy="30" r="30" fill="white"/>
<path d="M19 22.1746H21.4444H41" stroke="#C74C4C" stroke-width="4" stroke-linecap="round" stroke-linejoin="round"/>
<path d="M38.5556 22.1746V39.2857C38.5556 39.934 38.298 40.5558 37.8396 41.0142C37.3812 41.4726 36.7594 41.7301 36.1111 41.7301H23.8889C23.2406 41.7301 22.6188 41.4726 22.1604 41.0142C21.702 40.5558 21.4445 39.934 21.4445 39.2857V22.1746M25.1111 22.1746V19.7301C25.1111 19.0818 25.3687 18.4601 25.8271 18.0017C26.2855 17.5432 26.9073 17.2857 27.5556 17.2857H32.4445C33.0928 17.2857 33.7145 17.5432 34.1729 18.0017C34.6314 18.4601 34.8889 19.0818 34.8889 19.7301V22.1746" stroke="#C74C4C" stroke-width="4" stroke-linecap="round" stroke-linejoin="round"/>
</svg>
