<svg width="120" height="120" viewBox="0 0 120 120" fill="none" xmlns="http://www.w3.org/2000/svg">
<circle cx="60" cy="60" r="58" stroke="white" stroke-width="4"/>
<circle cx="60" cy="60" r="50" fill="#C74C4C"/>
<path d="M84.2857 72.2993C84.2857 73.4648 83.8227 74.5826 82.9985 75.4068C82.1744 76.2309 81.0566 76.6939 79.8911 76.6939H40.3401C39.1745 76.6939 38.0568 76.2309 37.2326 75.4068C36.4085 74.5826 35.9455 73.4648 35.9455 72.2993V48.1293C35.9455 46.9637 36.4085 45.846 37.2326 45.0218C38.0568 44.1977 39.1745 43.7347 40.3401 43.7347H49.1292L53.5237 37.1429H66.7074L71.102 43.7347H79.8911C81.0566 43.7347 82.1744 44.1977 82.9985 45.0218C83.8227 45.846 84.2857 46.9637 84.2857 48.1293V72.2993Z" stroke="white" stroke-width="4" stroke-linecap="round" stroke-linejoin="round"/>
<path d="M60.1154 67.9048C64.9695 67.9048 68.9045 63.9698 68.9045 59.1157C68.9045 54.2616 64.9695 50.3265 60.1154 50.3265C55.2613 50.3265 51.3263 54.2616 51.3263 59.1157C51.3263 63.9698 55.2613 67.9048 60.1154 67.9048Z" stroke="white" stroke-width="4" stroke-linecap="round" stroke-linejoin="round"/>
</svg>
