<svg width="70" height="70" viewBox="0 0 70 70" fill="none" xmlns="http://www.w3.org/2000/svg">
<circle cx="35" cy="35" r="35" fill="white"/>
<path d="M55 47.0909C55 48.0553 54.6169 48.9803 53.9349 49.6622C53.253 50.3442 52.3281 50.7273 51.3636 50.7273H18.6364C17.6719 50.7273 16.747 50.3442 16.0651 49.6622C15.3831 48.9803 15 48.0553 15 47.0909V27.0909C15 26.1265 15.3831 25.2016 16.0651 24.5196C16.747 23.8377 17.6719 23.4545 18.6364 23.4545H25.9091L29.5455 18H40.4545L44.0909 23.4545H51.3636C52.3281 23.4545 53.253 23.8377 53.9349 24.5196C54.6169 25.2016 55 26.1265 55 27.0909V47.0909Z" stroke="#C74C4C" stroke-width="4" stroke-linecap="round" stroke-linejoin="round"/>
<path d="M34.9999 43.4546C39.0165 43.4546 42.2726 40.1985 42.2726 36.1818C42.2726 32.1652 39.0165 28.9091 34.9999 28.9091C30.9833 28.9091 27.7271 32.1652 27.7271 36.1818C27.7271 40.1985 30.9833 43.4546 34.9999 43.4546Z" stroke="#C74C4C" stroke-width="4" stroke-linecap="round" stroke-linejoin="round"/>
</svg>
